# Blender v3.5.0 OBJ File: ''
# www.blender.org
mtllib Boss.mtl
o 円錐
v 0.000000 -0.500000 2.000000
v -0.390181 -0.500000 1.961571
v -0.765367 -0.500000 1.847759
v -1.111140 -0.500000 1.662939
v -1.414214 -0.500000 1.414214
v -1.662939 -0.500000 1.111140
v -1.847759 -0.500000 0.765367
v -1.961571 -0.500000 0.390181
v -2.000000 -0.500000 0.000000
v -1.961571 -0.500000 -0.390181
v -1.847759 -0.500000 -0.765367
v -1.662939 -0.500000 -1.111140
v -1.414214 -0.500000 -1.414214
v -1.111140 -0.500000 -1.662939
v -0.765367 -0.500000 -1.847759
v -0.390181 -0.500000 -1.961571
v 0.000000 -0.500000 -2.000000
v 0.390181 -0.500000 -1.961571
v 0.765367 -0.500000 -1.847759
v 1.111140 -0.500000 -1.662939
v 1.414214 -0.500000 -1.414214
v 1.662939 -0.500000 -1.111140
v 1.847759 -0.500000 -0.765367
v 1.961571 -0.500000 -0.390181
v 2.000000 -0.500000 0.000000
v 1.961571 -0.500000 0.390181
v 1.847759 -0.500000 0.765367
v 1.662939 -0.500000 1.111140
v 1.414214 -0.500000 1.414214
v 1.111140 -0.500000 1.662939
v 0.765367 -0.500000 1.847759
v 0.390181 -0.500000 1.961571
v 0.000000 3.500000 0.000000
vt 0.060992 0.486707
vt 0.279537 0.884065
vt 0.032221 0.506241
vt 0.009019 0.527103
vt 0.990981 0.009605
vt 0.990981 0.461176
vt 0.956209 0.009019
vt 0.918840 0.012616
vt 0.880309 0.020259
vt 0.842097 0.031653
vt 0.805673 0.046361
vt 0.772437 0.063818
vt 0.743665 0.083352
vt 0.720463 0.104214
vt 0.702425 0.009605
vt 0.702425 0.461176
vt 0.667654 0.009019
vt 0.630284 0.012616
vt 0.591753 0.020259
vt 0.553542 0.031653
vt 0.517118 0.046361
vt 0.483881 0.063818
vt 0.455109 0.083352
vt 0.431908 0.104214
vt 0.702425 0.479800
vt 0.702425 0.931371
vt 0.667654 0.479214
vt 0.630284 0.482811
vt 0.591753 0.490454
vt 0.553542 0.501848
vt 0.517118 0.516556
vt 0.483881 0.534013
vt 0.455109 0.553547
vt 0.431908 0.574409
vt 0.279537 0.432494
vt 0.244765 0.431908
vt 0.207396 0.435505
vt 0.168865 0.443147
vt 0.130653 0.454542
vt 0.413870 0.191507
vt 0.231381 0.413870
vt 0.009019 0.231381
vt 0.094229 0.469250
vt 0.009019 0.191507
vt 0.016798 0.152399
vt 0.032057 0.115560
vt 0.054210 0.082406
vt 0.082406 0.054210
vt 0.115560 0.032057
vt 0.152399 0.016798
vt 0.191507 0.009019
vt 0.231382 0.009019
vt 0.270490 0.016798
vt 0.307329 0.032057
vt 0.340483 0.054210
vt 0.368678 0.082406
vt 0.390831 0.115560
vt 0.406091 0.152399
vt 0.413870 0.231382
vt 0.406091 0.270490
vt 0.390831 0.307329
vt 0.368678 0.340483
vt 0.340483 0.368678
vt 0.307329 0.390831
vt 0.270490 0.406091
vt 0.191507 0.413870
vt 0.152399 0.406091
vt 0.115560 0.390831
vt 0.082406 0.368678
vt 0.054210 0.340483
vt 0.032057 0.307329
vt 0.016798 0.270490
vn -0.0878 0.4455 0.8910
vn -0.2599 0.4455 0.8567
vn -0.4220 0.4455 0.7896
vn -0.5680 0.4455 0.6921
vn -0.6921 0.4455 0.5680
vn -0.7896 0.4455 0.4220
vn -0.8567 0.4455 0.2599
vn -0.8910 0.4455 0.0878
vn -0.8910 0.4455 -0.0878
vn -0.8567 0.4455 -0.2599
vn -0.7896 0.4455 -0.4220
vn -0.6921 0.4455 -0.5680
vn -0.5680 0.4455 -0.6921
vn -0.4220 0.4455 -0.7896
vn -0.2599 0.4455 -0.8567
vn -0.0878 0.4455 -0.8910
vn 0.0878 0.4455 -0.8910
vn 0.2599 0.4455 -0.8567
vn 0.4220 0.4455 -0.7896
vn 0.5680 0.4455 -0.6921
vn 0.6921 0.4455 -0.5680
vn 0.7896 0.4455 -0.4220
vn 0.8567 0.4455 -0.2599
vn 0.8910 0.4455 -0.0878
vn 0.8910 0.4455 0.0878
vn 0.8567 0.4455 0.2599
vn 0.7896 0.4455 0.4220
vn 0.6921 0.4455 0.5680
vn 0.5680 0.4455 0.6921
vn 0.4220 0.4455 0.7896
vn 0.0000 -1.0000 -0.0000
vn 0.2599 0.4455 0.8567
vn 0.0878 0.4455 0.8910
usemtl マテリアル
s off
f 1/1/1 33/2/1 2/3/1
f 2/3/2 33/2/2 3/4/2
f 3/5/3 33/6/3 4/7/3
f 4/7/4 33/6/4 5/8/4
f 5/8/5 33/6/5 6/9/5
f 6/9/6 33/6/6 7/10/6
f 7/10/7 33/6/7 8/11/7
f 8/11/8 33/6/8 9/12/8
f 9/12/9 33/6/9 10/13/9
f 10/13/10 33/6/10 11/14/10
f 11/15/11 33/16/11 12/17/11
f 12/17/12 33/16/12 13/18/12
f 13/18/13 33/16/13 14/19/13
f 14/19/14 33/16/14 15/20/14
f 15/20/15 33/16/15 16/21/15
f 16/21/16 33/16/16 17/22/16
f 17/22/17 33/16/17 18/23/17
f 18/23/18 33/16/18 19/24/18
f 19/25/19 33/26/19 20/27/19
f 20/27/20 33/26/20 21/28/20
f 21/28/21 33/26/21 22/29/21
f 22/29/22 33/26/22 23/30/22
f 23/30/23 33/26/23 24/31/23
f 24/31/24 33/26/24 25/32/24
f 25/32/25 33/26/25 26/33/25
f 26/33/26 33/26/26 27/34/26
f 27/35/27 33/2/27 28/36/27
f 28/36/28 33/2/28 29/37/28
f 29/37/29 33/2/29 30/38/29
f 30/38/30 33/2/30 31/39/30
f 16/40/31 24/41/31 32/42/31
f 31/39/32 33/2/32 32/43/32
f 32/43/33 33/2/33 1/1/33
f 32/42/31 1/44/31 2/45/31
f 2/45/31 3/46/31 4/47/31
f 4/47/31 5/48/31 6/49/31
f 6/49/31 7/50/31 8/51/31
f 8/51/31 9/52/31 10/53/31
f 10/53/31 11/54/31 12/55/31
f 12/55/31 13/56/31 14/57/31
f 14/57/31 15/58/31 16/40/31
f 16/40/31 17/59/31 18/60/31
f 18/60/31 19/61/31 20/62/31
f 20/62/31 21/63/31 22/64/31
f 22/64/31 23/65/31 24/41/31
f 24/41/31 25/66/31 26/67/31
f 26/67/31 27/68/31 28/69/31
f 28/69/31 29/70/31 30/71/31
f 30/71/31 31/72/31 32/42/31
f 32/42/31 2/45/31 8/51/31
f 2/45/31 4/47/31 8/51/31
f 4/47/31 6/49/31 8/51/31
f 8/51/31 10/53/31 16/40/31
f 10/53/31 12/55/31 16/40/31
f 12/55/31 14/57/31 16/40/31
f 16/40/31 18/60/31 24/41/31
f 18/60/31 20/62/31 24/41/31
f 20/62/31 22/64/31 24/41/31
f 24/41/31 26/67/31 32/42/31
f 26/67/31 28/69/31 32/42/31
f 28/69/31 30/71/31 32/42/31
f 32/42/31 8/51/31 16/40/31
