# Blender v3.5.0 OBJ File: ''
# www.blender.org
mtllib board.mtl
o board
v 0.052325 0.749059 -0.052325
v 0.052325 0.000080 0.052325
v 0.052325 0.000080 -0.052325
v 0.052325 0.749059 0.052325
v -0.052325 0.000080 0.052325
v -0.052325 0.749059 0.052325
v -0.052325 0.000080 -0.052325
v -0.052325 0.749059 -0.052325
v 1.055892 0.738322 0.029670
v -1.055892 1.670427 0.029670
v -1.055892 0.738322 0.029670
v 1.055892 1.670427 0.029669
v -1.055892 0.738322 -0.029968
v 1.055892 1.670427 -0.029969
v 1.055892 0.738322 -0.029968
v -1.055892 1.670427 -0.029968
vt 0.033386 0.943376
vt 0.020994 0.955767
vt 0.020994 0.943376
vt 0.033386 0.955767
vt 0.020994 0.968159
vt 0.033386 0.968159
vt 0.020994 0.980551
vt 0.033386 0.980551
vt 0.020994 0.992943
vt 0.008603 0.980551
vt 0.008603 0.968159
vt 0.045778 0.968159
vt 0.033386 0.992943
vt 0.045778 0.980551
vt 0.999776 0.067681
vt -0.000187 0.509064
vt -0.000187 0.067681
vt 1.000000 0.509064
vt 1.000000 0.067681
vt 0.000037 0.509064
vt 0.000037 0.067681
vt 1.000000 0.509064
vn 1.0000 0.0000 -0.0000
vn 0.0000 0.0000 1.0000
vn -1.0000 0.0000 0.0000
vn 0.0000 -0.0000 -1.0000
vn 0.0000 -1.0000 0.0000
vn 0.0000 1.0000 0.0000
usemtl マテリアル
s off
f 1/1/1 2/2/1 3/3/1
f 4/4/2 5/5/2 2/2/2
f 6/6/3 7/7/3 5/5/3
f 8/8/4 3/9/4 7/7/4
f 5/5/5 3/10/5 2/11/5
f 4/12/6 8/8/6 6/6/6
f 1/1/1 4/4/1 2/2/1
f 4/4/2 6/6/2 5/5/2
f 6/6/3 8/8/3 7/7/3
f 8/8/4 1/13/4 3/9/4
f 5/5/5 7/7/5 3/10/5
f 4/12/6 1/14/6 8/8/6
s 1
f 9/15/2 10/16/2 11/17/2
f 9/15/2 12/18/2 10/16/2
f 13/19/4 14/20/4 15/21/4
f 13/19/4 16/22/4 14/20/4
