# Blender v3.5.0 OBJ File: 'stageTest.blend'
# www.blender.org
mtllib ElectricBoard.mtl
o 円柱
v -0.000000 -0.119754 1.142333
v -0.000000 -0.018042 1.142333
v -0.222858 -0.119754 1.120383
v -0.222858 -0.018042 1.120383
v -0.437152 -0.119754 1.055378
v -0.437152 -0.018042 1.055378
v -0.634646 -0.119754 0.949815
v -0.634646 -0.018042 0.949815
v -0.807751 -0.119754 0.807751
v -0.807751 -0.018042 0.807751
v -0.959162 -0.119754 0.639471
v -0.949815 -0.018042 0.634646
v -1.065152 -0.119754 0.442197
v -1.055378 -0.018042 0.437152
v -1.120383 -0.119754 0.222858
v -1.120383 -0.018042 0.222858
v -1.142333 -0.119754 -0.000000
v -1.142333 -0.018042 -0.000000
v -1.120383 -0.119754 -0.222858
v -1.120383 -0.018042 -0.222858
v -1.055378 -0.119754 -0.437152
v -1.055378 -0.018042 -0.437152
v -0.949815 -0.119754 -0.634646
v -0.949825 -0.018042 -0.634656
v -0.807751 -0.119754 -0.807751
v -0.813379 -0.018042 -0.813379
v -0.634646 -0.119754 -0.949815
v -0.635559 -0.018042 -0.950727
v -0.437152 -0.119754 -1.055378
v -0.437152 -0.018042 -1.055378
v -0.222858 -0.119754 -1.120383
v -0.222858 -0.018042 -1.120383
v -0.000000 -0.119754 -1.142333
v -0.000000 -0.018042 -1.142333
v 0.222858 -0.119754 -1.120383
v 0.222858 -0.018042 -1.120383
v 0.437152 -0.119754 -1.055378
v 0.437152 -0.018042 -1.055378
v 0.634646 -0.119754 -0.949815
v 0.634646 -0.018042 -0.949815
v 0.807751 -0.119754 -0.807751
v 0.807751 -0.018042 -0.807751
v 0.949815 -0.119754 -0.634646
v 0.949815 -0.018042 -0.634646
v 1.055378 -0.119754 -0.437152
v 1.055378 -0.018042 -0.437152
v 1.120383 -0.119754 -0.222858
v 1.120383 -0.018042 -0.222858
v 1.142333 -0.119754 -0.000000
v 1.142333 -0.018042 -0.000000
v 1.120383 -0.119754 0.222858
v 1.120383 -0.018042 0.222858
v 1.055378 -0.119754 0.437152
v 1.055378 -0.018042 0.437152
v 0.949815 -0.119754 0.634646
v 0.949815 -0.018042 0.634646
v 0.807751 -0.119754 0.807751
v 0.807751 -0.018042 0.807751
v 0.634646 -0.119754 0.949815
v 0.634646 -0.018042 0.949815
v 0.437152 -0.119754 1.055378
v 0.437152 -0.018042 1.055378
v 0.222858 -0.119754 1.120383
v 0.222858 -0.018042 1.120383
vt 0.996114 0.954339
vt 0.872631 0.048136
vt 0.995892 0.048015
vt 0.872851 0.954460
vt 0.749367 0.048257
vt 0.749589 0.954581
vt 0.626105 0.048377
vt 0.626327 0.954702
vt 0.502842 0.048498
vt 0.379802 0.954943
vt 0.378241 0.048611
vt 0.256540 0.955153
vt 0.254974 0.048820
vt 0.130474 0.049136
vt 0.132456 0.950909
vt 0.007843 0.044787
vt 0.131105 0.044585
vt 0.991818 0.963032
vt 0.867361 0.038754
vt 0.990468 0.038549
vt 0.868711 0.963236
vt 0.744255 0.038959
vt 0.745605 0.963441
vt 0.621149 0.039164
vt 0.622496 0.963645
vt 0.498042 0.039368
vt 0.375365 0.963984
vt 0.374936 0.039501
vt 0.252051 0.964108
vt 0.251828 0.039625
vt 0.128723 0.039748
vt 0.128944 0.964231
vt 0.005616 0.039871
vt 0.992414 0.956994
vt 0.869043 0.042785
vt 0.992192 0.042662
vt 0.869265 0.957115
vt 0.745893 0.042906
vt 0.746115 0.957237
vt 0.622744 0.043027
vt 0.622966 0.957359
vt 0.499593 0.043150
vt 0.499815 0.957480
vt 0.376444 0.043272
vt 0.376666 0.957603
vt 0.253294 0.043394
vt 0.253516 0.957725
vt 0.130146 0.043516
vt 0.130367 0.957847
vt 0.006995 0.043637
vt 0.991090 0.946292
vt 0.868444 0.051563
vt 0.990870 0.051443
vt 0.868664 0.946411
vt 0.746019 0.051682
vt 0.746239 0.946530
vt 0.623592 0.051801
vt 0.623813 0.946650
vt 0.501167 0.051921
vt 0.501388 0.946768
vt 0.378741 0.052040
vt 0.378961 0.946888
vt 0.256316 0.052159
vt 0.256536 0.947007
vt 0.133890 0.052279
vt 0.134110 0.947127
vt 0.011464 0.052398
vt 0.503064 0.954822
vt 0.133278 0.955456
vt 0.009194 0.951110
vt 0.498885 0.963857
vt 0.005837 0.964355
vt 0.007216 0.957969
vt 0.011685 0.947245
vn -0.0980 0.0000 0.9952
vn -0.2903 0.0000 0.9569
vn -0.4714 0.0000 0.8819
vn -0.6344 0.0000 0.7730
vn -0.7397 0.0995 0.6655
vn -0.8758 0.1075 0.4705
vn -0.9644 0.1047 0.2428
vn -0.9952 0.0000 0.0980
vn -0.9952 0.0000 -0.0980
vn -0.9569 0.0000 -0.2903
vn -0.8819 0.0000 -0.4714
vn -0.7730 -0.0001 -0.6344
vn -0.6343 -0.0126 -0.7729
vn -0.4714 0.0000 -0.8819
vn -0.2903 0.0000 -0.9569
vn -0.0980 0.0000 -0.9952
vn 0.0980 0.0000 -0.9952
vn 0.2903 0.0000 -0.9569
vn 0.4714 0.0000 -0.8819
vn 0.6344 0.0000 -0.7730
vn 0.7730 0.0000 -0.6344
vn 0.8819 0.0000 -0.4714
vn 0.9569 0.0000 -0.2903
vn 0.9952 0.0000 -0.0980
vn 0.9952 0.0000 0.0980
vn 0.9569 0.0000 0.2903
vn 0.8819 0.0000 0.4714
vn 0.7730 0.0000 0.6344
vn 0.6344 0.0000 0.7730
vn 0.4714 0.0000 0.8819
vn 0.2903 0.0000 0.9569
vn 0.0980 0.0000 0.9952
vn -0.7730 0.0000 0.6344
vn -0.8772 0.1029 0.4689
vn -0.9569 0.0000 0.2903
vn -0.8819 -0.0001 -0.4713
vn -0.7925 -0.0773 -0.6050
vn -0.6095 -0.0774 -0.7890
vn -0.4665 -0.0121 -0.8844
usemtl マテリアル
s off
f 2/1/1 3/2/1 1/3/1
f 4/4/2 5/5/2 3/2/2
f 6/6/3 7/7/3 5/5/3
f 8/8/4 9/9/4 7/7/4
f 9/9/5 12/10/5 11/11/5
f 11/11/6 14/12/6 13/13/6
f 14/12/7 15/14/7 13/13/7
f 16/15/8 17/16/8 15/17/8
f 18/18/9 19/19/9 17/20/9
f 20/21/10 21/22/10 19/19/10
f 22/23/11 23/24/11 21/22/11
f 24/25/12 25/26/12 23/24/12
f 25/26/13 28/27/13 27/28/13
f 27/28/14 30/29/14 29/30/14
f 30/29/15 31/31/15 29/30/15
f 32/32/16 33/33/16 31/31/16
f 34/34/17 35/35/17 33/36/17
f 36/37/18 37/38/18 35/35/18
f 38/39/19 39/40/19 37/38/19
f 40/41/20 41/42/20 39/40/20
f 42/43/21 43/44/21 41/42/21
f 44/45/22 45/46/22 43/44/22
f 46/47/23 47/48/23 45/46/23
f 48/49/24 49/50/24 47/48/24
f 50/51/25 51/52/25 49/53/25
f 52/54/26 53/55/26 51/52/26
f 54/56/27 55/57/27 53/55/27
f 56/58/28 57/59/28 55/57/28
f 58/60/29 59/61/29 57/59/29
f 60/62/30 61/63/30 59/61/30
f 62/64/31 63/65/31 61/63/31
f 64/66/32 1/67/32 63/65/32
f 2/1/1 4/4/1 3/2/1
f 4/4/2 6/6/2 5/5/2
f 6/6/3 8/8/3 7/7/3
f 8/8/4 10/68/4 9/9/4
f 9/9/33 10/68/33 12/10/33
f 11/11/34 12/10/34 14/12/34
f 14/12/35 16/69/35 15/14/35
f 16/15/8 18/70/8 17/16/8
f 18/18/9 20/21/9 19/19/9
f 20/21/10 22/23/10 21/22/10
f 22/23/36 24/25/36 23/24/36
f 24/25/37 26/71/37 25/26/37
f 25/26/38 26/71/38 28/27/38
f 27/28/39 28/27/39 30/29/39
f 30/29/15 32/32/15 31/31/15
f 32/32/16 34/72/16 33/33/16
f 34/34/17 36/37/17 35/35/17
f 36/37/18 38/39/18 37/38/18
f 38/39/19 40/41/19 39/40/19
f 40/41/20 42/43/20 41/42/20
f 42/43/21 44/45/21 43/44/21
f 44/45/22 46/47/22 45/46/22
f 46/47/23 48/49/23 47/48/23
f 48/49/24 50/73/24 49/50/24
f 50/51/25 52/54/25 51/52/25
f 52/54/26 54/56/26 53/55/26
f 54/56/27 56/58/27 55/57/27
f 56/58/28 58/60/28 57/59/28
f 58/60/29 60/62/29 59/61/29
f 60/62/30 62/64/30 61/63/30
f 62/64/31 64/66/31 63/65/31
f 64/66/32 2/74/32 1/67/32
